<svg width="31" height="38" viewBox="0 0 31 38" fill="none" xmlns="http://www.w3.org/2000/svg">
<path fill-rule="evenodd" clip-rule="evenodd" d="M28.3719 5.60722C29.1912 5.89409 29.7387 6.66659 29.7387 7.53472V20.2341C29.7387 23.7835 28.4487 27.1716 26.1706 29.7966C25.025 31.1185 23.5756 32.1478 22.0362 32.9803L15.365 36.5841L8.6825 32.9785C7.14125 32.146 5.69 31.1185 4.5425 29.7947C2.2625 27.1697 0.96875 23.7797 0.96875 20.2266V7.53472C0.96875 6.66659 1.51625 5.89409 2.33562 5.60722L14.6769 1.27034C15.1156 1.11659 15.5937 1.11659 16.0306 1.27034L28.3719 5.60722Z" stroke="#1CDE75" stroke-width="1.5" stroke-linecap="round" stroke-linejoin="round"/>
<path d="M10.4795 18.3458L14.027 21.8952L21.3357 14.5864" stroke="#1CDE75" stroke-width="1.5" stroke-linecap="round" stroke-linejoin="round"/>
</svg>
